<svg width="555" height="640" stroke="#E3E6E7" opacity="0.5" fill="none" xmlns="http://www.w3.org/2000/svg">
<path d="M395 385C395 274.543 305.457 185 195 185" />
<path d="M375 385C375 295.462 309.623 221.192 224 207.324" />
<path d="M355 385.001C355 312.808 307.187 251.783 241.5 231.863" />
<path d="M335 385.001C335 336.341 310.175 293.48 272.5 268.391" />
<path d="M414.998 385C414.998 349.59 406.633 316.134 391.77 286.5" />
<path d="M355 385C355 495.457 444.543 585 555 585" />
<path d="M375 385C375 484.411 455.589 565 555 565" />
<path d="M395 385C395 473.366 466.634 545 555 545" />
<path d="M415 385C415 434.94 441.148 478.772 480.5 503.554" />
<path d="M335 385C335 490.194 408.83 578.144 507.5 599.859" />
<path d="M-140 17C-140 127.457 -50.4569 217 60 217" />
<path d="M-120 17C-120 107.061 -53.8582 181.674 32.5 194.913" />
<path d="M-100 17C-100 88.2739 -53.3967 148.663 11 169.357" />
<path d="M-160 17C-160 122.193 -86.1696 210.143 12.5 231.858" />
</svg>
