<svg width="555" height="640" stroke="#FFF" opacity="0.8" fill="none" xmlns="http://www.w3.org/2000/svg">
<path d="M0 585C110.457 585 200 495.457 200 385V340" />
<path d="M0 565C99.4113 565 180 484.411 180 385V320.5" />
<path d="M0 545C88.3656 545 160 473.366 160 385V332" />
<path d="M74.5 503.555C113.852 478.773 140 434.941 140 385.001V369" />
<path d="M47.5 599.859C146.17 578.144 220 490.194 220 385V348.5" />
<path d="M645 -114C645 -3.54304 555.457 86 445 86" />
<path d="M625 -113.996C625 -23.9357 558.858 50.677 472.5 63.916" />
<path d="M605 -113.996C605 -42.7223 558.397 17.6668 494 38.3613" />
<path d="M665 -114C665 -8.8065 591.17 79.1435 492.5 100.858" />
<path d="M360 78.9961C249.543 78.9961 160 168.539 160 278.996" />
<path d="M182.324 249.998C194.744 173.317 255.609 112.873 332.5 101.086" />
<path d="M206.863 232.497C222.32 181.526 262.529 141.317 313.5 125.859" />
<path d="M243.391 201.495C255.225 183.724 271.014 168.812 289.5 158.016" />
<path d="M261.5 82.2263C279.702 73.0968 299.346 66.4187 320 62.625" />
</svg>
