<svg width="1610" height="695" stroke="#E3E6E7" fill="none" opacity="0.5" xmlns="http://www.w3.org/2000/svg">
<path d="M965 371.867C965 482.324 1054.54 571.867 1165 571.867" />
<path d="M985 371.867C985 461.405 1050.38 535.675 1136 549.543" />
<path d="M1005 371.866C1005 444.059 1052.81 505.084 1118.5 525.004" />
<path d="M1025 371.867C1025 420.527 1049.83 463.388 1087.5 488.477" />
<path d="M945.002 371.867C945.002 407.277 953.367 440.733 968.23 470.367" />
<path d="M1410 354C1410 243.543 1499.54 154 1610 154" />
<path d="M1430 354C1430 264.462 1495.37 190.192 1581 176.324" />
<path d="M1450 354.001C1450 281.808 1497.81 220.783 1563.5 200.863" />
<path d="M1470 354.001C1470 305.341 1494.82 262.48 1532.5 237.391" />
<path d="M1390 354C1390 318.59 1398.36 285.134 1413.23 255.5" />
<path d="M200 479C200 368.543 110.457 279 0 279" />
<path d="M180 479C180 389.462 114.623 315.192 29 301.324" />
<path d="M160 479.001C160 406.808 112.187 345.783 46.5 325.863" />
<path d="M140 479.001C140 430.341 115.175 387.48 77.5 362.391" />
<path d="M219.998 479C219.998 443.59 211.633 410.134 196.77 380.5" />
<path d="M1005 371.867C1005 261.41 915.457 171.867 805 171.867" />
<path d="M985 371.867C985 272.456 904.411 191.867 805 191.867" />
<path d="M965 371.867C965 283.501 893.366 211.867 805 211.867" />
<path d="M945 371.867C945 321.927 918.852 278.095 879.5 253.313" />
<path d="M1025 371.867C1025 266.673 951.17 178.723 852.5 157.008" />
<path d="M1450 354C1450 464.457 1360.46 554 1250 554" />
<path d="M1430 354C1430 444.061 1363.86 518.674 1277.5 531.913" />
<path d="M1410 354C1410 425.274 1363.4 485.663 1299 506.357" />
<path d="M1470 354C1470 459.193 1396.17 547.143 1297.5 568.858" />
<path d="M805 171.957C694.543 171.957 605 261.5 605 371.957V416.957" />
<path d="M805 191.957C705.589 191.957 625 272.546 625 371.957V436.457" />
<path d="M805 211.957C716.634 211.957 645 283.591 645 371.957V424.957" />
<path d="M730.5 253.402C691.148 278.184 665 322.016 665 371.956V387.957" />
<path d="M757.5 157.098C658.83 178.813 585 266.763 585 371.957V408.457" />
<path d="M160 479C160 589.457 249.543 679 360 679" />
<path d="M180 479.004C180 569.064 246.142 643.677 332.5 656.916" />
<path d="M200 479.004C200 550.278 246.603 610.667 311 631.361" />
<path d="M140 479C140 584.193 213.83 672.144 312.5 693.858" />
<path d="M445 677.961C555.457 677.961 645 588.418 645 477.961" />
<path d="M622.676 506.963C610.256 583.644 549.391 644.088 472.5 655.875" />
<path d="M598.137 524.46C582.68 575.431 542.471 615.64 491.5 631.098" />
<path d="M561.609 555.462C549.775 573.233 533.986 588.145 515.5 598.941" />
<path d="M543.5 674.399C525.298 683.528 505.654 690.206 485 694" />
</svg>
