<svg width="442" height="442" stroke="#FFF" opacity="0.8" fill="none" xmlns="http://www.w3.org/2000/svg">
<path d="M21 221C21 331.457 110.543 421 221 421"/>
<path d="M41 221C41 320.411 121.589 401 221 401"/>
<path d="M61 221C61 309.366 132.634 381 221 381"/>
<path d="M81 221C81 298.32 143.68 361 221 361"/>
<path d="M1.00002 221C1.00001 342.503 99.4974 441 221 441"/>
<path d="M421 221C421 331.457 331.457 421 221 421"/>
<path d="M401 221C401 320.411 320.411 401 221 401"/>
<path d="M381 221C381 309.366 309.366 381 221 381"/>
<path d="M361 221C361 298.32 298.32 361 221 361"/>
<path d="M441 221C441 342.503 342.503 441 221 441"/>
<path d="M221 21C110.543 21 21 110.543 21 221"/>
<path d="M221 41C121.589 41 41 121.589 41 221"/>
<path d="M221 61C132.634 61 61 132.634 61 221"/>
<path d="M221 81C143.68 81 81 143.68 81 221"/>
<path d="M221 0.99999C99.4973 0.999996 0.999995 99.4974 1 221"/>
<path d="M221 21C331.457 21 421 110.543 421 221"/>
<path d="M221 41C320.411 41 401 121.589 401 221"/>
<path d="M221 61C309.366 61 381 132.634 381 221"/>
<path d="M221 81C298.32 81 361 143.68 361 221"/>
<path d="M221 0.99999C342.503 0.999996 441 99.4974 441 221"/>
</svg>
