<svg width="442" height="442" viewBox="0 0 442 442" stroke="#FF9F1C" fill="none" xmlns="http://www.w3.org/2000/svg">
<path d="M221 21C110.543 21 21 110.543 21 221"/>
<path d="M221 41C121.589 41 41 121.589 41 221"/>
<path d="M221 61C132.634 61 61 132.634 61 221"/>
<path d="M221 81C143.68 81 81 143.68 81 221"/>
<path d="M221 1.00001C99.4974 1 1.00001 99.4974 1 221"/>
<path d="M221 421C110.543 421 21 331.457 21 221"/>
<path d="M221 401C121.589 401 41 320.411 41 221"/>
<path d="M221 381C132.634 381 61 309.366 61 221"/>
<path d="M221 361C143.68 361 81 298.32 81 221"/>
<path d="M221 441C99.4973 441 0.999995 342.503 1 221"/>
<path d="M221 21C331.457 21 421 110.543 421 221"/>
<path d="M221 41C320.411 41 401 121.589 401 221"/>
<path d="M221 61C309.366 61 381 132.634 381 221"/>
<path d="M221 81C298.32 81 361 143.68 361 221"/>
<path d="M221 0.99999C342.503 0.999996 441 99.4974 441 221"/>
</svg>
